# xmcd
#
# Track frame offsets:
#	150
#	14855
#	37485
#	64792
#	77665
#	97685
#	112285
#	136685
#	157967
#	174655
#
# Disc length: 2505 seconds
#
# Revision: 0
# Processed by: cddbd v1.5.1PL0 Copyright (c) Steve Scherf et al.
# Submitted via: dBpowerAMP V4.0
#
DISCID=8409c70a
DTITLE=Billy Gibson Band - Down Home
DYEAR=2004
DGENRE=Blues
TTITLE0=Down Home
TTITLE1=Keep Doin' What You're Doin'
TTITLE2=Home At Last
TTITLE3=What Is Love?
TTITLE4=Darlin' Please Come Home
TTITLE5=Stingin' Stang
TTITLE6=Love Everybody
TTITLE7=One More Time
TTITLE8=Work It Out
TTITLE9=Tell It Like It is
EXTD=This album was purchased in Memphis.  The Billy Gibson Band is a great new Blues group out of Memphis TN.\nThey album is not on a lable.\nDetails at www.billygibson.com.\nSubmitted: Mike Bradley, Phoenix, AZ
EXTT0=
EXTT1=
EXTT2=
EXTT3=
EXTT4=
EXTT5=
EXTT6=
EXTT7=
EXTT8=
EXTT9=
PLAYORDER=
